<?xml version="1.0" standalone="no"?>
<!DOCTYPE svg PUBLIC "-//W3C//DTD SVG 20010904//EN"
 "http://www.w3.org/TR/2001/REC-SVG-20010904/DTD/svg10.dtd">
<svg version="1.0" xmlns="http://www.w3.org/2000/svg"
 width="20pt" height="20pt" viewBox="0 0 512.000000 512.000000"
 preserveAspectRatio="xMidYMid meet">

<g transform="translate(0.000000,512.000000) scale(0.100000,-0.100000)"
fill="#000000" stroke="none">
<path d="M2360 5103 c-459 -70 -849 -402 -1001 -851 -22 -66 -59 -220 -59
-248 0 -2 -141 -4 -314 -4 -280 0 -321 -2 -375 -19 -114 -36 -223 -127 -277
-233 -57 -112 -55 -67 -51 -1461 4 -1403 0 -1307 62 -1493 140 -416 523 -729
957 -784 112 -14 2404 -14 2516 0 433 55 818 369 957 784 62 186 58 91 62
1481 3 906 1 1289 -7 1335 -28 164 -136 295 -300 366 -41 17 -78 19 -379 24
l-335 5 -11 70 c-19 110 -61 235 -115 344 -248 494 -781 769 -1330 684z m373
-469 c157 -35 323 -137 434 -267 77 -90 173 -286 173 -354 0 -11 -141 -13
-778 -13 -428 0 -781 3 -784 6 -8 8 18 103 47 169 99 223 299 392 535 454 96
25 271 28 373 5z m-1443 -1221 c0 -71 5 -145 11 -166 13 -48 69 -112 123 -140
83 -43 201 -21 268 50 49 52 61 96 66 246 l4 137 793 0 792 0 5 -139 c4 -117
9 -146 27 -185 46 -93 157 -149 253 -127 54 12 107 44 138 84 42 53 50 90 50
232 l0 135 270 0 270 0 2 -1187 c1 -654 1 -1215 0 -1248 -10 -254 -212 -509
-477 -602 l-80 -28 -1220 -3 c-1193 -2 -1221 -2 -1300 18 -211 53 -381 192
-470 385 -68 146 -65 83 -65 1439 l0 1226 270 0 270 0 0 -127z"/>
</g>
</svg>
