<?xml version="1.0" standalone="no"?>
<!DOCTYPE svg PUBLIC "-//W3C//DTD SVG 20010904//EN"
 "http://www.w3.org/TR/2001/REC-SVG-20010904/DTD/svg10.dtd">
<svg version="1.0" xmlns="http://www.w3.org/2000/svg"
 width="23.000000pt" height="23.000000pt" viewBox="0 0 512.000000 512.000000"
 preserveAspectRatio="xMidYMid meet">

<g transform="translate(0.000000,512.000000) scale(0.100000,-0.100000)"
fill="#000000" stroke="none">
<path d="M2770 4795 c-1048 -128 -1945 -783 -2405 -1758 -179 -380 -289 -787
-341 -1268 -13 -122 -18 -277 -20 -740 l-4 -586 23 -44 c12 -24 37 -54 56 -66
l34 -23 2444 0 c2709 0 2474 -6 2530 67 l28 36 3 371 c2 243 -1 384 -8 408
-13 45 -67 94 -117 107 -21 5 -121 12 -223 15 -365 11 -723 76 -1005 183 -529
201 -852 545 -951 1013 -25 116 -25 353 0 468 62 291 214 526 401 620 177 89
408 31 585 -148 91 -91 134 -187 176 -390 15 -72 18 -146 19 -495 1 -432 3
-445 49 -515 55 -84 190 -105 306 -48 205 101 450 432 554 748 60 185 71 254
71 460 0 195 -9 269 -51 428 -112 417 -399 748 -829 957 -213 103 -438 168
-692 200 -144 18 -485 18 -633 0z m538 -325 c411 -44 743 -182 984 -408 177
-166 298 -395 339 -642 15 -96 16 -316 0 -400 -37 -198 -146 -430 -265 -565
l-35 -40 -1 250 c0 391 -36 608 -132 799 -112 224 -347 415 -600 487 -74 22
-102 24 -268 24 -191 -1 -306 -12 -470 -47 -706 -147 -1293 -606 -1615 -1263
-294 -600 -323 -1279 -79 -1879 25 -61 48 -119 51 -128 5 -17 -20 -18 -435
-18 l-441 0 -3 343 c-2 188 0 421 4 517 32 773 263 1443 675 1960 433 544
1107 923 1773 999 52 6 109 13 125 15 69 8 303 5 393 -4z m-771 -1241 c-59
-175 -71 -259 -71 -484 -1 -155 3 -220 17 -290 111 -546 477 -975 1046 -1225
319 -140 755 -231 1201 -252 l55 -3 3 -168 2 -167 -754 0 c-698 0 -761 1 -848
19 -283 57 -515 171 -711 351 -407 373 -566 1023 -392 1599 75 250 194 451
373 630 57 56 106 101 108 98 3 -3 -10 -51 -29 -108z m-680 -276 c-13 -26 -38
-86 -55 -133 -239 -654 -118 -1396 310 -1905 81 -97 116 -131 221 -219 l67
-56 -398 0 -399 0 -61 123 c-282 566 -277 1216 16 1786 79 155 161 274 302
441 24 29 23 15 -3 -37z"/>
</g>
</svg>
